:SAMPLES-PER-SECOND 30
:FULLY-SPECIFIED
:DEGREES
118
root  -1.42348 32.6193 -0.107202 -176.078 -76.6586 -166.278
RightUpLeg  -55.0222 -18.1767 -12.2849
RightLeg  54.4171 14.3168 20.0984
RightFoot  -15.0907 0.806428 27.2789
RightToes  -6.40286e-010 0 -3.6325e-017
Spine  20.6969 -10.178 -16.2254
Spine1  -27.9085 -9.49369 33.6202
HEad  -40.25 31.9487 -16.4334
LeftShoulder1  0.114402 6.17775 14.5394
LeftArm  -33.2236 -7.54439 -8.50545
LeftForeArm  -14.5357 6.05349 -2.87928
LeftHand  0.0894204 5.61332 38.2241
RightShoulder  -0.512647 -9.40243 0.219564
RightArm  -28.3008 -24.3984 9.97887
RightForeArm  -35.363 0.486899 0.313027
RightHand  -0.147789 -3.83931 -10.0251
LeftUpLeg  -3.59284 27.9754 43.2864
LeftLeg  -1.6218 20.9967 4.01321
LeftFoot  38.0424 9.77325 -21.6096
LeftToes  -2.09187e-010 -4.93792e-011 -8.21189e-011
119
root  -1.39662 32.2567 -0.47201 -177.975 -78.2238 -165.73
RightUpLeg  -54.3846 -17.7456 -13.1666
RightLeg  57.4217 12.5501 19.8175
RightFoot  -17.5634 1.37557 27.0173
RightToes  -6.40286e-010 0 -3.6325e-017
Spine  21.2761 -10.0981 -15.3086
Spine1  -27.5547 -9.6959 32.4886
HEad  -35.9116 32.878 -14.9239
LeftShoulder1  0.0243804 4.5271 12.3336
LeftArm  -33.7514 -7.8083 -15.0504
LeftForeArm  -14.0309 5.9328 -2.72824
LeftHand  -0.150781 4.88298 35.591
RightShoulder  -0.465627 -9.88527 -1.35444
RightArm  -28.3965 -20.7472 2.89107
RightForeArm  -30.351 1.7809 0.615068
RightHand  -0.17445 -3.61892 -10.5878
LeftUpLeg  -4.35115 27.9906 43.3835
LeftLeg  -0.436241 20.1547 5.05301
LeftFoot  36.7945 9.37555 -21.3427
LeftToes  -2.09187e-010 -4.93792e-011 -8.21189e-011
120
root  -1.36253 31.8426 -0.626842 -179.743 -79.6383 -165.402
RightUpLeg  -53.7204 -17.7548 -14.3342
RightLeg  60.2422 11.2257 19.8787
RightFoot  -19.5885 1.88834 27.5483
RightToes  -6.40286e-010 0 -3.6325e-017
Spine  21.9974 -9.91589 -13.787
Spine1  -27.3885 -9.60436 30.6665
HEad  -31.911 33.617 -13.2171
LeftShoulder1  0.000865297 3.11175 9.44821
LeftArm  -32.4224 -6.70756 -21.1085
LeftForeArm  -13.1407 5.32938 -3.3154
LeftHand  -0.312581 4.30356 33.3405
RightShoulder  -0.39868 -10.2551 -2.93042
RightArm  -30.7 -16.4965 -3.40026
RightForeArm  -24.2854 4.0494 0.646943
RightHand  -0.227728 -3.14345 -11.2357
LeftUpLeg  -5.30805 27.3957 43.735
LeftLeg  2.23619 19.1161 6.23423
LeftFoot  33.835 9.60544 -23.3898
LeftToes  -2.09187e-010 -4.93792e-011 -8.21189e-011
121
root  -1.28919 31.3873 -0.548125 177.46 -81.2262 -164.135
RightUpLeg  -52.7747 -18.1101 -15.7821
RightLeg  62.71 10.2055 20.0822
RightFoot  -21.0414 2.28459 28.0953
RightToes  -6.40286e-010 0 -3.6325e-017
Spine  22.7756 -9.98821 -11.2997
Spine1  -26.7857 -9.67779 27.9114
HEad  -29.461 33.9653 -11.9994
LeftShoulder1  0.0456491 2.04256 6.04418
LeftArm  -30.7698 -4.16295 -26.2206
LeftForeArm  -12.3134 4.39574 -4.01314
LeftHand  -0.460013 3.72228 31.7226
RightShoulder  -0.308714 -10.3521 -4.51013
RightArm  -34.4461 -11.9961 -8.42317
RightForeArm  -17.6333 6.80612 0.685124
RightHand  -0.31275 -2.26025 -11.3546
LeftUpLeg  -6.66689 23.5118 44.9892
LeftLeg  6.92819 20.2028 6.93549
LeftFoot  29.3464 10.5843 -28.5935
LeftToes  -2.09187e-010 -4.93792e-011 -8.21189e-011
122
root  -1.18225 30.9628 -0.208267 174.762 -82.9129 -163.013
RightUpLeg  -51.3822 -18.5483 -17.7615
RightLeg  64.2986 9.39801 19.8896
RightFoot  -21.7913 2.49549 28.3752
RightToes  -6.40286e-010 0 -3.6325e-017
Spine  23.3994 -10.1717 -7.82216
Spine1  -25.5204 -9.84275 23.9592
HEad  -28.4277 33.3945 -11.3084
LeftShoulder1  0.136499 1.28475 2.59376
LeftArm  -29.8308 -0.994774 -30.8162
LeftForeArm  -11.6931 3.70012 -4.40486
LeftHand  -0.555182 3.32213 30.8146
RightShoulder  -0.213797 -10.2623 -6.02622
RightArm  -38.4261 -8.03524 -12.6387
RightForeArm  -11.3069 9.84814 0.987863
RightHand  -0.404542 -1.3716 -11.5748
LeftUpLeg  -8.52306 18.0352 46.6558
LeftLeg  13.0258 21.8976 6.86186
LeftFoot  24.3333 11.354 -34.8364
LeftToes  -2.09187e-010 -4.93792e-011 -8.21189e-011
123
root  -1.0667 30.6167 0.373186 177.218 -84.537 -167.011
RightUpLeg  -49.6831 -18.8596 -20.6965
RightLeg  64.9404 8.81402 19.2606
RightFoot  -21.7721 2.5083 28.5543
RightToes  -6.40286e-010 0 -3.6325e-017
Spine  23.8322 -10.195 -3.71477
Spine1  -24.0829 -9.73597 18.4468
HEad  -27.5458 31.6155 -10.4961
LeftShoulder1  0.255916 0.707924 -0.800368
LeftArm  -29.1243 2.15199 -34.7702
LeftForeArm  -11.5786 3.38288 -4.71828
LeftHand  -0.537189 3.36641 30.4898
RightShoulder  -0.129738 -10.1621 -7.39847
RightArm  -42.4523 -5.00984 -16.3753
RightForeArm  -6.01965 13.2159 1.72314
RightHand  -0.482298 -1.00238 -12.7052
LeftUpLeg  -11.3967 18.3183 46.4949
LeftLeg  19.3363 17.3154 6.78554
LeftFoot  19.3783 11.248 -39.903
LeftToes  -2.09187e-010 -4.93792e-011 -8.21189e-011
124
root  -0.956919 30.3416 1.12156 -168.633 -85.9847 177.448
RightUpLeg  -47.7422 -18.9727 -24.5111
RightLeg  64.8166 8.48309 18.4675
RightFoot  -21.2012 2.40112 28.9359
RightToes  -6.40286e-010 0 -3.6325e-017
Spine  24.1303 -9.96441 0.700713
Spine1  -23.0271 -9.12058 11.1633
HEad  -25.9497 28.6393 -9.177
LeftShoulder1  0.408259 0.160789 -4.25376
LeftArm  -28.182 5.30251 -37.5947
LeftForeArm  -12.0668 3.28396 -5.12824
LeftHand  -0.482388 3.55492 30.2125
RightShoulder  -0.0596461 -10.116 -8.58262
RightArm  -46.4869 -2.69841 -19.5451
RightForeArm  -2.15329 16.7608 2.87731
RightHand  -0.558542 -0.828223 -14.1749
LeftUpLeg  -14.9469 20.9736 44.8123
LeftLeg  25.8274 10.377 5.73689
LeftFoot  14.9011 10.327 -42.7959
LeftToes  -2.09187e-010 -4.93792e-011 -8.21189e-011
125
root  -0.842324 30.1505 2.00021 -138.467 -86.7719 146.144
RightUpLeg  -45.4605 -19.0326 -28.7276
RightLeg  63.7061 8.437 17.4898
RightFoot  -19.9262 2.14777 29.8022
RightToes  -6.40286e-010 0 -3.6325e-017
Spine  24.3963 -9.38663 5.1964
Spine1  -22.2465 -7.99517 2.73029
HEad  -23.8698 24.4651 -7.61379
LeftShoulder1  0.584423 -0.349797 -7.5912
LeftArm  -27.4589 8.67593 -39.4625
LeftForeArm  -12.6703 3.20539 -5.44229
LeftHand  -0.497571 3.45139 29.5035
RightShoulder  -0.00441151 -10.1487 -9.52835
RightArm  -49.7266 -0.6101 -22.0148
RightForeArm  -0.59175 20.0713 4.05049
RightHand  -0.627946 -0.444264 -14.7417
LeftUpLeg  -18.7587 22.9647 42.5105
LeftLeg  32.2969 4.54596 3.43726
LeftFoot  11.4816 9.1737 -43.7407
LeftToes  -2.09187e-010 -4.93792e-011 -8.21189e-011
126
root  -0.707739 30.1505 3.04861 -102.557 -86.2554 109.497
RightUpLeg  -42.7035 -19.167 -33.0485
RightLeg  60.8072 8.666 15.8873
RightFoot  -17.2112 1.51562 31.1484
RightToes  -6.40286e-010 0 -3.6325e-017
Spine  24.7084 -8.29827 9.44901
Spine1  -21.4513 -6.32245 -5.59702
HEad  -21.7325 19.0945 -6.18987
LeftShoulder1  0.733486 -0.624349 -10.506
LeftArm  -27.3187 12.2468 -40.7986
LeftForeArm  -13.142 3.09144 -5.52127
LeftHand  -0.52964 3.26092 28.575
RightShoulder  0.0351219 -10.282 -10.192
RightArm  -51.7595 1.53009 -23.6929
RightForeArm  -1.75504 22.7898 4.93722
RightHand  -0.628237 -0.307451 -14.3528
LeftUpLeg  -22.5308 24.259 39.4707
LeftLeg  37.9414 0.148567 0.502181
LeftFoot  9.23929 8.17497 -43.3349
LeftToes  -2.09187e-010 -4.93792e-011 -8.21189e-011
127
root  -0.555164 30.4158 4.28626 -82.4291 -84.6171 89.432
RightUpLeg  -39.669 -19.095 -37.258
RightLeg  55.5218 8.89128 13.2691
RightFoot  -12.9878 0.394636 32.9209
RightToes  -6.40286e-010 0 -3.6325e-017
Spine  25.0918 -6.60369 13.3707
Spine1  -20.9613 -4.02594 -13.2523
HEad  -19.3879 12.6993 -5.03675
LeftShoulder1  0.80251 -0.530153 -12.8561
LeftArm  -27.4709 15.8382 -41.4133
LeftForeArm  -14.0005 3.15111 -5.41085
LeftHand  -0.502059 3.33514 28.0822
RightShoulder  0.0598187 -10.3649 -10.5943
RightArm  -52.4997 3.52404 -24.3966
RightForeArm  -4.65503 24.775 5.54433
RightHand  -0.591099 -0.545245 -14.1536
LeftUpLeg  -26.1736 25.2236 35.3035
LeftLeg  42.2389 -2.65582 -2.17755
LeftFoot  7.50414 7.22483 -41.9837
LeftToes  -2.09187e-010 -4.93792e-011 -8.21189e-011
128
root  -0.373233 30.9138 5.64718 -75.1478 -82.6873 83.4896
RightUpLeg  -36.8305 -18.4794 -41.0088
RightLeg  47.8785 8.2601 9.38199
RightFoot  -7.79476 -1.19473 35.4615
RightToes  -6.40286e-010 0 -3.6325e-017
Spine  25.592 -4.39149 17.1103
Spine1  -21.3833 -1.25501 -20.7461
HEad  -16.7052 5.60973 -4.27412
LeftShoulder1  0.763684 -0.0839046 -14.3741
LeftArm  -27.873 19.3684 -41.0203
LeftForeArm  -15.6316 3.41466 -5.02544
LeftHand  -0.471758 3.47403 28.295
RightShoulder  0.069814 -10.1198 -10.7994
RightArm  -51.9505 4.88793 -24.111
RightForeArm  -7.56484 25.7974 5.91877
RightHand  -0.592026 -0.581618 -14.2789
LeftUpLeg  -30.0718 26.2686 29.8095
LeftLeg  45.1008 -3.754 -3.60786
LeftFoot  5.84429 6.2138 -39.8032
LeftToes  -2.09187e-010 -4.93792e-011 -8.21189e-011
